<?xml version="1.0" encoding="UTF-8"?>
<svg width="63px" height="16px" preserveAspectRatio="none" viewBox="0 0 238 60" version="1.1" xmlns="http://www.w3.org/2000/svg" xmlns:xlink="http://www.w3.org/1999/xlink">
    <title>ABZ Logo</title>
    <g id="ABZ-브랜드-로고" stroke="none" stroke-width="1" fill="none" fill-rule="evenodd">
        <g id="abz_2" transform="translate(-396.000000, -741.000000)" fill="#000000">
            <g id="Group-15" transform="translate(350.000000, 661.000000)">
                <g id="Group-20" transform="translate(46.000000, 80.000000)">
                    <path d="M20.6894263,0 L0,59.9989507 L24.8273654,59.9989507 L26.927187,53.5889926 L38.2445911,53.5889926 L40.3445024,59.9989507 L69.3096275,59.9989507 L48.6202909,0 L20.6894263,0 Z M32.5859339,36.3151732 L36.0770565,46.972039 L29.0948113,46.972039 L32.5859339,36.3151732 Z M180.120825,0 L180.120825,23.9390242 L219.325058,23.9390242 L180.120825,36.7476398 L180.120825,59.9989507 L237.30955,59.9989507 L237.30955,36.7476398 L198.108995,36.7476398 L237.30955,23.9390242 L237.30955,0 L180.120825,0 Z M113.299244,45.8881013 L110.774579,45.8881013 L110.774579,37.4725818 L113.299244,37.4725818 C115.623191,37.4725818 117.507048,39.3566185 117.507048,41.6802967 C117.507048,44.0040646 115.623191,45.8881013 113.299244,45.8881013 M113.299244,22.7323958 L110.774579,22.7323958 L110.774579,14.3167867 L113.299244,14.3167867 C115.623191,14.3167867 117.507048,16.2008234 117.507048,18.5245913 C117.507048,20.8482694 115.623191,22.7323958 113.299244,22.7323958 M133.410732,18.6213626 C133.410732,8.33732212 123.916109,0.000995516141 112.204086,0.000995516141 C112.030813,0.000995516141 111.86301,0.0201883499 111.690633,0.0237757954 L111.690633,8.96861388e-06 L75.7038008,8.96861388e-06 L75.7038008,0.000995516141 L72.9578803,0.000995516141 L72.9578803,60.0000359 L102.628118,60.0000359 L102.628118,59.9989596 L111.690633,59.9989596 L111.690633,59.9772556 C111.86301,59.980843 112.030813,60.0000359 112.204086,60.0000359 C123.916109,60.0000359 133.410732,51.6631711 133.410732,41.3795791 C133.410732,37.0891736 131.741225,33.1493512 128.964273,30.0004709 C131.741225,26.8516802 133.410732,22.9117681 133.410732,18.6213626 M162.981768,27.4513217 L152.013871,38.4191293 L147.334945,33.7402932 L158.302842,22.7724855 L162.981768,27.4513217 Z" id="Combined-Shape"></path>
                </g>
            </g>
        </g>
    </g>
</svg>